# Blender v2.82 (sub 7) OBJ File: 'Figure5.blend'
# www.blender.org
mtllib Figure5.mtl
o Cube
v -0.400000 2.742000 -4.387000
v -0.400000 -2.742000 -4.387000
v 0.400000 2.742000 -4.387000
v 0.400000 -2.742000 -4.387000
v -0.400000 2.742000 4.387000
v -0.400000 -2.742000 4.387000
v 0.400000 2.742000 4.387000
v 0.400000 -2.742000 4.387000
v 0.400000 -2.742000 -1.103379
v -0.400000 -2.742000 -1.103379
v 0.400000 1.411300 2.381653
v -0.400000 1.411300 2.381653
v 0.400000 2.425329 1.173180
v -0.400000 2.425329 1.173180
v 0.400000 -2.742000 -3.162724
v -0.400000 -2.742000 -3.162724
v -0.400000 1.411300 -3.198444
v -0.400000 -0.686635 -1.438068
v 0.400000 1.411300 -3.198444
v -0.400000 -2.742000 2.345932
v 0.400000 -2.742000 2.345932
v -0.400000 -0.686635 0.621276
v 0.400000 -0.742199 0.667900
v 0.400000 -0.686635 -1.438068
v -0.400000 -2.742000 0.286589
v 0.400000 -2.742000 0.286589
v -0.400000 -1.913751 -0.408396
v 0.400000 -1.913751 -0.408396
v -0.400000 2.425329 -1.989971
v -0.400000 0.540480 -0.408395
v 0.400000 2.425329 -1.989972
v 0.400000 0.540480 -0.408395
v 0.400000 -0.686635 0.621276
vt 0.625000 0.500000
vt 0.875000 0.500000
vt 0.875000 0.750000
vt 0.625000 0.750000
vt 0.375000 0.750000
vt 0.625000 1.000000
vt 0.375000 1.000000
vt 0.375000 0.941843
vt 0.466165 0.894031
vt 0.468698 0.892702
vt 0.564337 0.942861
vt 0.610564 0.908428
vt 0.524639 0.863364
vt 0.610564 0.818299
vt 0.564337 0.783866
vt 0.468698 0.834025
vt 0.375000 0.784884
vt 0.375000 0.000000
vt 0.625000 0.000000
vt 0.625000 0.250000
vt 0.375000 0.250000
vt 0.125000 0.500000
vt 0.183157 0.500000
vt 0.183157 0.750000
vt 0.125000 0.750000
vt 0.375000 0.500000
vt 0.375000 0.465116
vt 0.468698 0.415975
vt 0.564337 0.466134
vt 0.610564 0.431701
vt 0.524639 0.386637
vt 0.610564 0.341572
vt 0.564337 0.307139
vt 0.468698 0.357298
vt 0.375000 0.308157
vt 0.625000 0.348004
vt 0.625000 0.401996
vt 0.534554 0.401996
vt 0.534554 0.348004
vt 0.340116 0.750000
vt 0.340116 0.500000
vt 0.723004 0.500000
vt 0.776996 0.500000
vt 0.776996 0.750000
vt 0.723004 0.750000
vt 0.625000 0.848004
vt 0.625000 0.901996
vt 0.524329 0.901996
vt 0.524329 0.848004
vt 0.425702 0.348004
vt 0.465446 0.348004
vt 0.465446 0.401996
vt 0.425702 0.401996
vt 0.625000 0.348004
vt 0.625000 0.401996
vt 0.524329 0.401996
vt 0.524329 0.348004
vt 0.375000 0.366834
vt 0.412758 0.386636
vt 0.375000 0.406439
vt 0.241834 0.750000
vt 0.241834 0.500000
vt 0.281439 0.500000
vt 0.281439 0.750000
vt 0.412758 0.863364
vt 0.375000 0.883166
vt 0.375000 0.843561
vt 0.475671 0.348004
vt 0.475671 0.401996
vt 0.377043 0.401996
vt 0.377043 0.348004
vt 0.465446 0.848004
vt 0.465446 0.901996
vt 0.425701 0.901996
vt 0.425702 0.848004
vt 0.723004 0.500000
vt 0.776996 0.500000
vt 0.776996 0.750000
vt 0.723004 0.750000
vt 0.377043 0.848004
vt 0.475671 0.848004
vt 0.475671 0.901996
vt 0.473004 0.901996
vt 0.377043 0.901996
vt 0.625000 0.848004
vt 0.625000 0.901996
vt 0.534554 0.901996
vt 0.534554 0.848004
vn 0.0000 1.0000 0.0000
vn 1.0000 -0.0000 -0.0000
vn 0.0000 0.0000 1.0000
vn 0.0000 -1.0000 0.0000
vn 0.0000 0.0000 -1.0000
vn -1.0000 -0.0000 0.0000
vn 0.0000 -0.6428 0.7660
vn 0.0000 -0.7660 -0.6428
vn 0.0000 0.6428 -0.7660
vn 0.0000 0.6428 0.7660
vn 0.0000 -0.7660 0.6428
vn 0.0000 -0.6428 -0.7660
usemtl Material
s off
f 1/1/1 5/2/1 7/3/1 3/4/1
f 4/5/2 3/4/2 7/6/2 8/7/2 21/8/2 23/9/2 33/10/2 11/11/2 13/12/2 32/13/2 31/14/2 19/15/2 24/16/2 15/17/2
f 8/18/3 7/19/3 5/20/3 6/21/3
f 6/22/4 20/23/4 21/24/4 8/25/4
f 2/26/5 1/1/5 3/4/5 4/5/5
f 6/21/6 5/20/6 1/1/6 2/26/6 16/27/6 18/28/6 17/29/6 29/30/6 30/31/6 14/32/6 12/33/6 22/34/6 20/35/6
f 13/36/7 14/37/7 30/38/7 32/39/7
f 15/40/4 16/41/4 2/26/4 4/5/4
f 14/42/8 13/43/8 11/44/8 12/45/8
f 12/46/9 11/47/9 33/48/9 22/49/9
f 26/50/10 28/51/10 27/52/10 25/53/10
f 19/54/10 17/55/10 18/56/10 24/57/10
f 25/58/6 27/59/6 10/60/6
f 26/61/4 25/62/4 10/63/4 9/64/4
f 28/65/2 26/66/2 9/67/2
f 24/68/7 18/69/7 16/70/7 15/71/7
f 27/72/9 28/73/9 9/74/9 10/75/9
f 17/76/11 19/77/11 31/78/11 29/79/11
f 20/80/12 22/81/12 33/82/12 23/83/12 21/84/12
f 29/85/12 31/86/12 32/87/12 30/88/12
