# Blender v2.82 (sub 7) OBJ File: ''
# www.blender.org
mtllib untitled.mtl
o Cube
v -0.400000 2.742000 -4.387000
v -0.400000 -2.742000 -4.387000
v 0.400000 2.742000 -4.387000
v 0.400000 -2.742000 -4.387000
v -0.400000 2.742000 4.387000
v -0.400000 -2.742000 4.387000
v 0.400000 2.742000 4.387000
v 0.400000 -2.742000 4.387000
v 0.400000 -2.742000 -0.811772
v -0.400000 -2.742000 -0.811772
v 0.400000 2.141337 -0.811772
v -0.400000 2.141337 -0.811772
v 0.400000 -2.742000 0.811772
v 0.400000 2.141337 0.811772
v -0.400000 2.141337 0.811772
v -0.400000 -2.742000 0.811772
v 0.400000 2.407081 2.793975
v -0.400000 2.377609 2.805872
v 0.400000 0.912076 0.811772
v -0.400000 0.873631 0.811772
v 0.400000 1.635539 3.375404
v -0.400000 1.606067 3.387301
v 0.400000 -0.297988 0.811772
v -0.400000 -0.336433 0.811772
v -0.400000 -1.417374 -3.205775
v 0.400000 -1.387901 -3.217673
v 0.400000 0.426662 -0.811772
v -0.400000 0.388216 -0.811772
v -0.400000 -2.188916 -2.624346
v 0.400000 -2.159443 -2.636243
v 0.400000 -0.783403 -0.811772
v -0.400000 -0.821848 -0.811772
vt 0.625000 0.500000
vt 0.875000 0.500000
vt 0.875000 0.750000
vt 0.625000 0.750000
vt 0.375000 0.750000
vt 0.625000 1.000000
vt 0.375000 1.000000
vt 0.375000 0.898130
vt 0.486416 0.898130
vt 0.574560 0.971176
vt 0.609732 0.954610
vt 0.541579 0.898130
vt 0.597617 0.898130
vt 0.597617 0.851870
vt 0.519450 0.851870
vt 0.436729 0.783318
vt 0.401557 0.799885
vt 0.464287 0.851870
vt 0.375000 0.851870
vt 0.375000 0.000000
vt 0.625000 0.000000
vt 0.625000 0.250000
vt 0.375000 0.250000
vt 0.125000 0.500000
vt 0.226870 0.500000
vt 0.226870 0.750000
vt 0.125000 0.750000
vt 0.375000 0.500000
vt 0.375000 0.398130
vt 0.462534 0.398130
vt 0.400213 0.449776
vt 0.435386 0.466343
vt 0.517698 0.398130
vt 0.597617 0.398130
vt 0.597617 0.351870
vt 0.539826 0.351870
vt 0.608388 0.295052
vt 0.573216 0.278485
vt 0.484663 0.351870
vt 0.375000 0.351870
vt 0.625000 0.360968
vt 0.625000 0.303106
vt 0.563550 0.303106
vt 0.564898 0.360968
vt 0.273130 0.750000
vt 0.273130 0.500000
vt 0.764032 0.750000
vt 0.821894 0.750000
vt 0.821894 0.500000
vt 0.764032 0.500000
vt 0.625000 0.946894
vt 0.625000 0.889032
vt 0.581912 0.889032
vt 0.580565 0.946894
vt 0.485807 0.500000
vt 0.547121 0.500000
vt 0.544284 0.750000
vt 0.482971 0.750000
vt 0.483837 0.323994
vt 0.545162 0.325044
vt 0.538150 0.946894
vt 0.539498 0.889032
vt 0.453831 0.889032
vt 0.453831 0.946894
vt 0.541751 0.976274
vt 0.480425 0.977324
vt 0.471428 0.250000
vt 0.532741 0.250000
vt 0.535119 0.462353
vt 0.473793 0.461302
vt 0.468591 0.000000
vt 0.529905 0.000000
vt 0.522483 0.360968
vt 0.521135 0.303106
vt 0.453831 0.303106
vt 0.453831 0.360968
vt 0.529905 1.000000
vt 0.468591 1.000000
vt 0.470382 0.840016
vt 0.531708 0.838966
vn 0.0000 1.0000 0.0000
vn 1.0000 0.0000 -0.0000
vn 0.0000 0.0000 1.0000
vn 0.0000 -1.0000 -0.0000
vn 0.0000 0.0000 -1.0000
vn -1.0000 -0.0000 0.0000
vn 0.0103 -0.6018 -0.7986
vn 0.0383 -0.7978 0.6017
vn -0.0383 0.7978 -0.6017
vn -0.0103 0.6018 0.7986
usemtl Material
s off
f 1/1/1 5/2/1 7/3/1 3/4/1
f 4/5/2 3/4/2 7/6/2 8/7/2 13/8/2 23/9/2 21/10/2 17/11/2 19/12/2 14/13/2 11/14/2 27/15/2 26/16/2 30/17/2 31/18/2 9/19/2
f 8/20/3 7/21/3 5/22/3 6/23/3
f 6/24/4 16/25/4 13/26/4 8/27/4
f 2/28/5 1/1/5 3/4/5 4/5/5
f 6/23/6 5/22/6 1/1/6 2/28/6 10/29/6 32/30/6 29/31/6 25/32/6 28/33/6 12/34/6 15/35/6 20/36/6 18/37/6 22/38/6 24/39/6 16/40/6
f 11/41/3 12/42/3 28/43/3 27/44/3
f 9/45/4 10/46/4 2/28/4 4/5/4
f 14/47/4 15/48/4 12/49/4 11/50/4
f 15/51/5 14/52/5 19/53/5 20/54/5
f 18/55/7 17/56/7 21/57/7 22/58/7
f 17/56/8 18/55/8 20/59/8 19/60/8
f 24/61/5 23/62/5 13/63/5 16/64/5
f 22/58/9 21/57/9 23/65/9 24/66/9
f 25/67/8 26/68/8 27/69/8 28/70/8
f 29/71/10 30/72/10 26/68/10 25/67/10
f 31/73/3 32/74/3 10/75/3 9/76/3
f 30/77/9 29/78/9 32/79/9 31/80/9
