# Blender v2.82 (sub 7) OBJ File: 'Figure3.blend'
# www.blender.org
mtllib Figure3.mtl.mtl
o Cube_Cube.001
v -0.400000 2.742000 -4.387000
v -0.400000 -2.742000 -4.387000
v 0.400000 2.742000 -4.387000
v 0.400000 -2.742000 -4.387000
v -0.400000 2.742000 4.387000
v -0.400000 -2.742000 4.387000
v 0.400000 2.742000 4.387000
v 0.400000 -2.742000 4.387000
v 0.400000 -2.742000 2.098533
v -0.400000 -2.742000 2.098533
v 0.400000 -0.459832 0.500541
v -0.400000 -0.459832 0.500541
v 0.400000 -2.742000 0.589436
v -0.400000 -2.742000 0.589436
v -0.400000 -2.742000 -1.338611
v 0.400000 -2.742000 -1.338610
v -0.400000 -0.459832 -1.249716
v 0.400000 -0.459832 -1.249716
v -0.400000 -2.742000 -2.847708
v 0.400000 -2.742000 -2.847708
v -0.400000 -1.365232 -0.374587
v 0.400000 -1.365232 -0.374587
v -0.400000 -0.467046 0.490239
v 0.400000 -0.467046 0.490239
v -0.400000 2.250190 0.490239
v 0.400000 2.250190 0.490239
v -0.400000 0.341002 2.045476
v 0.400000 0.341002 2.045476
v -0.400000 1.136345 2.045476
v 0.400000 1.136345 2.045476
v -0.400000 1.136345 0.490239
v 0.400000 0.341002 0.490239
v -0.400000 0.341002 0.490239
v -0.400000 0.341002 -2.689115
v 0.400000 0.341002 -2.689115
v 0.400000 1.136345 0.490239
v -0.400000 1.136345 -2.689115
v 0.400000 1.136345 -2.689115
v 0.400000 -0.469060 -1.236537
v -0.400000 -0.384194 -1.236537
v -0.400000 0.341001 -1.236537
v -0.400000 -0.469060 -1.236537
v -0.400000 1.136345 -1.236537
v -0.400000 2.257299 -1.236537
v 0.400000 1.136345 -1.236537
v 0.400000 0.341002 -1.236537
v 0.400000 2.257299 -1.236537
v -0.400000 2.257299 -0.410078
v 0.400000 2.257299 -0.410078
v -0.400000 2.250190 -0.410078
v 0.400000 2.250190 -0.410078
vt 0.625000 0.500000
vt 0.875000 0.500000
vt 0.875000 0.750000
vt 0.625000 0.750000
vt 0.375000 0.750000
vt 0.625000 1.000000
vt 0.375000 1.000000
vt 0.375000 0.934794
vt 0.479038 0.889262
vt 0.478709 0.888969
vt 0.515545 0.888968
vt 0.515545 0.933282
vt 0.551803 0.933282
vt 0.551803 0.888968
vt 0.602579 0.888968
vt 0.602579 0.863316
vt 0.602904 0.863316
vt 0.602904 0.839767
vt 0.551803 0.839767
vt 0.551803 0.798378
vt 0.515545 0.798378
vt 0.515545 0.839767
vt 0.478617 0.839767
vt 0.479038 0.839391
vt 0.375000 0.793859
vt 0.375000 0.000000
vt 0.625000 0.000000
vt 0.625000 0.250000
vt 0.375000 0.250000
vt 0.125000 0.500000
vt 0.190206 0.500000
vt 0.190206 0.750000
vt 0.125000 0.750000
vt 0.375000 0.500000
vt 0.375000 0.456140
vt 0.479038 0.410609
vt 0.478617 0.410233
vt 0.482486 0.410233
vt 0.515545 0.410233
vt 0.515546 0.451622
vt 0.551803 0.451622
vt 0.551803 0.410233
vt 0.602904 0.410233
vt 0.602904 0.386685
vt 0.602580 0.386685
vt 0.602579 0.361032
vt 0.551803 0.361032
vt 0.551801 0.316719
vt 0.515546 0.316717
vt 0.515545 0.361031
vt 0.478709 0.361031
vt 0.479038 0.360738
vt 0.375000 0.315206
vt 0.233205 0.750000
vt 0.233205 0.500000
vt 0.288141 0.500000
vt 0.288141 0.750000
vt 0.625000 0.848411
vt 0.625000 0.901588
vt 0.399392 0.901588
vt 0.399392 0.848411
vt 0.625000 0.348411
vt 0.625000 0.401589
vt 0.399392 0.401589
vt 0.399392 0.348411
vt 0.437763 0.385673
vt 0.375000 0.413141
vt 0.375000 0.358205
vt 0.375000 0.836859
vt 0.437763 0.864327
vt 0.375000 0.891795
vt 0.605589 0.348412
vt 0.605589 0.401589
vt 0.469486 0.401589
vt 0.469486 0.348411
vt 0.723411 0.500000
vt 0.776588 0.500000
vt 0.776588 0.503254
vt 0.723411 0.503254
vt 0.605589 0.901589
vt 0.469486 0.901588
vt 0.469486 0.848411
vt 0.605589 0.848411
vt 0.331141 0.750000
vt 0.331140 0.500000
vt 0.723412 0.747456
vt 0.776589 0.747456
vt 0.776589 0.750000
vt 0.723412 0.750000
vt 0.701996 0.750000
vt 0.798004 0.750000
vt 0.798004 0.609362
vt 0.701996 0.609362
vt 0.625000 0.923004
vt 0.625000 0.826996
vt 0.542383 0.826996
vt 0.542383 0.923004
vt 0.483390 0.923004
vt 0.483390 0.826996
vt 0.423455 0.826996
vt 0.423455 0.923004
vt 0.375000 0.321421
vt 0.375000 0.428579
vt 0.625000 0.428579
vt 0.625000 0.321421
vt 0.196421 0.750000
vt 0.303579 0.750000
vt 0.303579 0.667879
vt 0.196421 0.667879
vt 0.303579 0.500000
vt 0.196421 0.500000
vt 0.196421 0.576700
vt 0.303579 0.576700
vt 0.375000 0.821421
vt 0.375000 0.928579
vt 0.625000 0.928579
vt 0.625000 0.821421
vt 0.696421 0.750000
vt 0.803579 0.750000
vt 0.803579 0.667879
vt 0.696421 0.667879
vt 0.803579 0.500000
vt 0.696421 0.500000
vt 0.696421 0.576700
vt 0.803579 0.576700
vt 0.625000 0.425000
vt 0.625000 0.325000
vt 0.540827 0.325000
vt 0.540827 0.425000
vt 0.481104 0.325000
vt 0.426648 0.325000
vt 0.420276 0.325000
vt 0.420276 0.425000
vt 0.481104 0.425000
vt 0.700000 0.750000
vt 0.800000 0.750000
vt 0.800000 0.500000
vt 0.700000 0.500000
vt 0.625000 0.925000
vt 0.625000 0.825000
vt 0.624466 0.825000
vt 0.624466 0.925000
vn 0.0000 1.0000 0.0000
vn 1.0000 -0.0000 -0.0000
vn 0.0000 0.0000 1.0000
vn 0.0000 -1.0000 0.0000
vn 0.0000 0.0000 -1.0000
vn -1.0000 0.0000 0.0000
vn 0.0000 -0.5736 -0.8192
vn 0.0000 -0.5736 0.8192
vn 0.0000 0.5736 0.8192
vn 0.0000 -0.8192 -0.5736
vn 0.0000 0.5736 -0.8192
vn -0.0000 -0.8192 0.5736
usemtl Material.001
s off
f 1/1/1 5/2/1 7/3/1 3/4/1
f 4/5/2 3/4/2 7/6/2 8/7/2 9/8/2 11/9/2 24/10/2 32/11/2 28/12/2 30/13/2 36/14/2 26/15/2 51/16/2 49/17/2 47/18/2 45/19/2 38/20/2 35/21/2 46/22/2 39/23/2 18/24/2 20/25/2
f 8/26/3 7/27/3 5/28/3 6/29/3
f 6/30/4 10/31/4 9/32/4 8/33/4
f 2/34/5 1/1/5 3/4/5 4/5/5
f 6/29/6 5/28/6 1/1/6 2/34/6 19/35/6 17/36/6 42/37/6 40/38/6 41/39/6 34/40/6 37/41/6 43/42/6 44/43/6 48/44/6 50/45/6 25/46/6 31/47/6 29/48/6 27/49/6 33/50/6 23/51/6 12/52/6 10/53/6
f 13/54/4 14/55/4 15/56/4 16/57/4
f 12/58/7 11/59/7 9/60/7 10/61/7
f 18/62/8 17/63/8 19/64/8 20/65/8
f 21/66/6 15/67/6 14/68/6
f 16/69/2 22/70/2 13/71/2
f 22/72/9 21/73/9 14/74/9 13/75/9
f 17/76/10 18/77/10 39/78/10 42/79/10
f 22/80/11 16/81/11 15/82/11 21/83/11
f 20/84/4 19/85/4 2/34/4 4/5/4
f 23/86/12 24/87/12 11/88/12 12/89/12
f 26/90/4 25/91/4 50/92/4 51/93/4
f 25/94/5 26/95/5 36/96/5 31/97/5
f 33/98/5 32/99/5 24/100/5 23/101/5
f 34/102/3 35/103/3 38/104/3 37/105/3
f 27/106/1 28/107/1 32/108/1 33/109/1
f 35/110/1 34/111/1 41/112/1 46/113/1
f 28/114/5 27/115/5 29/116/5 30/117/5
f 30/118/4 29/119/4 31/120/4 36/121/4
f 37/122/4 38/123/4 45/124/4 43/125/4
f 47/126/3 44/127/3 43/128/3 45/129/3
f 41/130/3 40/131/3 42/132/3 39/133/3 46/134/3
f 49/135/4 48/136/4 44/137/4 47/138/4
f 48/139/5 49/140/5 51/141/5 50/142/5
