# Blender v2.82 (sub 7) OBJ File: 'Project.blend'
# www.blender.org
mtllib Figure1.mtl
o Cube_Cube.003
v 0.400000 -2.741919 4.387071
v 0.400000 2.741919 4.387071
v -0.400000 -2.741919 4.387071
v -0.400000 2.741919 4.387071
v 0.400000 -2.741919 -4.387071
v 0.400000 2.741919 -4.387071
v -0.400000 -2.741919 -4.387071
v -0.400000 2.741919 -4.387071
v -0.400000 -2.741919 -0.835920
v 0.400000 -2.741919 -0.835920
v -0.400000 2.307048 -0.835920
v 0.400000 2.307048 -0.835920
v -0.400000 -2.741919 0.835919
v 0.400000 -2.741919 0.835919
v -0.400000 2.307048 0.835920
v 0.400000 2.307048 0.835920
v -0.400000 1.126944 2.890689
v 0.400000 1.126944 2.890689
v -0.400000 1.126945 -0.835920
v -0.400000 1.126944 0.835920
v -0.400000 0.054590 2.890689
v 0.400000 0.054590 2.890689
v 0.400000 0.054591 0.835919
v 0.400000 0.054591 -0.835920
v -0.400000 0.054591 -2.890689
v 0.400000 0.054591 -2.890689
v -0.400000 0.054591 -0.835920
v -0.400000 0.054591 0.835919
v -0.400000 1.126944 -2.890689
v 0.400000 1.126944 -2.890689
v 0.400000 1.126944 0.835920
v 0.400000 1.126944 -0.835920
vt 0.375000 0.000000
vt 0.625000 0.000000
vt 0.625000 0.250000
vt 0.375000 0.250000
vt 0.625000 0.500000
vt 0.375000 0.500000
vt 0.375000 0.398818
vt 0.502489 0.398818
vt 0.502489 0.457364
vt 0.551376 0.457364
vt 0.551376 0.398818
vt 0.605175 0.398818
vt 0.605175 0.351182
vt 0.551376 0.351182
vt 0.551376 0.292636
vt 0.502489 0.292636
vt 0.502489 0.351182
vt 0.375000 0.351182
vt 0.625000 0.750000
vt 0.375000 0.750000
vt 0.625000 1.000000
vt 0.375000 1.000000
vt 0.375000 0.898818
vt 0.502489 0.898818
vt 0.502489 0.957364
vt 0.551376 0.957364
vt 0.551376 0.898818
vt 0.605175 0.898818
vt 0.605175 0.851182
vt 0.551376 0.851182
vt 0.551376 0.792636
vt 0.502489 0.792636
vt 0.502489 0.851182
vt 0.375000 0.851182
vt 0.125000 0.500000
vt 0.226182 0.500000
vt 0.226182 0.750000
vt 0.125000 0.750000
vt 0.875000 0.500000
vt 0.875000 0.750000
vt 0.625000 0.412857
vt 0.625000 0.337143
vt 0.579498 0.337143
vt 0.579498 0.412857
vt 0.712143 0.750000
vt 0.787857 0.750000
vt 0.787857 0.500000
vt 0.712143 0.500000
vt 0.625000 0.912857
vt 0.625000 0.837143
vt 0.579498 0.837143
vt 0.579498 0.912857
vt 0.273818 0.750000
vt 0.273818 0.500000
vt 0.625000 0.337143
vt 0.625000 0.412857
vt 0.536147 0.412857
vt 0.536147 0.337143
vt 0.375000 0.412857
vt 0.375000 0.337143
vt 0.463853 0.337143
vt 0.463853 0.412857
vt 0.538151 0.412857
vt 0.538151 0.337143
vt 0.430326 0.337143
vt 0.430326 0.412857
vt 0.212143 0.500000
vt 0.287857 0.500000
vt 0.287857 0.750000
vt 0.212143 0.750000
vt 0.538151 0.912857
vt 0.538151 0.837143
vt 0.430326 0.837143
vt 0.430326 0.912857
vt 0.712143 0.500000
vt 0.787857 0.500000
vt 0.787857 0.750000
vt 0.712143 0.750000
vt 0.625000 0.837143
vt 0.625000 0.912857
vt 0.536147 0.912857
vt 0.536147 0.837143
vt 0.375000 0.912857
vt 0.375000 0.837143
vt 0.463853 0.837143
vt 0.463853 0.912857
vn 0.0000 0.0000 1.0000
vn -1.0000 0.0000 0.0000
vn 0.0000 0.0000 -1.0000
vn 1.0000 -0.0000 -0.0000
vn 0.0000 -1.0000 -0.0000
vn 0.0000 1.0000 0.0000
usemtl None
s off
f 1/1/1 2/2/1 4/3/1 3/4/1
f 3/4/2 4/3/2 8/5/2 7/6/2 9/7/2 27/8/2 25/9/2 29/10/2 19/11/2 11/12/2 15/13/2 20/14/2 17/15/2 21/16/2 28/17/2 13/18/2
f 7/6/3 8/5/3 6/19/3 5/20/3
f 5/20/4 6/19/4 2/21/4 1/22/4 14/23/4 23/24/4 22/25/4 18/26/4 31/27/4 16/28/4 12/29/4 32/30/4 30/31/4 26/32/4 24/33/4 10/34/4
f 3/35/5 13/36/5 14/37/5 1/38/5
f 8/5/6 4/39/6 2/40/6 6/19/6
f 12/41/1 11/42/1 19/43/1 32/44/1
f 16/45/5 15/46/5 11/47/5 12/48/5
f 15/49/3 16/50/3 31/51/3 20/52/3
f 10/53/5 9/54/5 7/6/5 5/20/5
f 29/55/5 30/56/5 32/57/5 19/58/5
f 18/59/5 17/60/5 20/61/5 31/62/5
f 24/63/1 27/64/1 9/65/1 10/66/1
f 17/67/3 18/68/3 22/69/3 21/70/3
f 28/71/3 23/72/3 14/73/3 13/74/3
f 30/75/1 29/76/1 25/77/1 26/78/1
f 26/79/6 25/80/6 27/81/6 24/82/6
f 21/83/6 22/84/6 23/85/6 28/86/6
